<?xml version="1.0" encoding="UTF-8"?>
<COLLADA xmlns="http://www.collada.org/2005/11/COLLADASchema" version="1.4.1">
<!--
# File generated by ImageToStl.com - Free Image and 3D model conversion tools
-->
  <asset>
    <contributor>
      <author>ImageToStl.com</author>
      <authoring_tool>ImageToStl.com</authoring_tool>
    </contributor>
    <created>2026-02-25T04:54:13</created>
    <modified>2026-02-25T04:54:13</modified>
    <up_axis>Z_UP</up_axis>
  </asset>
  <library_effects>
    <effect id="effect_0">
        <profile_COMMON>
          <technique sid="common">
            <phong>
              <diffuse>
                <color>0.85 0.85 0.85 1</color>
              </diffuse>
              <specular>
                <color>0.05 0.05 0.05 1</color>
              </specular>
              <shininess>
                <float>64</float>
              </shininess>
            </phong>
          </technique>
        </profile_COMMON>
    </effect>
  </library_effects>
  <library_materials>
    <material id="mat_0">
      <instance_effect url="#effect_0"/>
    </material>
  </library_materials>
  <library_geometries>
    <geometry id="geometry_86422014_dc69_4e0b_b301_bc58a95eb2c6">
      <mesh>
        <source id="pos_0">
          <float_array id="pos_0-array" count="48">6.01000023 4.01000023 0.50999999 6.01000023 -4.01000023 0.50999999 6.01000023 4.01000023 0 6.01000023 -4.01000023 0 -6.01000023 4.01000023 0.50999999 -6.01000023 4.01000023 0 -6.01000023 -4.01000023 0.50999999 -6.01000023 -4.01000023 0 6 4 0.50999999 -6 4 0.50999999 -6 -4 0.50999999 6 -4 0.50999999 -6 -4 0.01 6 -4 0.01 6 4 0.01 -6 4 0.01</float_array>
          <technique_common>
            <accessor source="#pos_0-array" count="48" stride="3">
              <param name="X" type="float"/>
              <param name="Y" type="float"/>
              <param name="Z" type="float"/>
            </accessor>
          </technique_common>
        </source>
        <source id="norm_0">
          <float_array id="norm_0-array" count="18">1 0 0 0 1 0 -1 0 -0 0 -1 0 0 0 -1 0 0 1</float_array>
          <technique_common>
            <accessor source="#norm_0-array" count="18" stride="3">
              <param name="X" type="float"/>
              <param name="Y" type="float"/>
              <param name="Z" type="float"/>
            </accessor>
          </technique_common>
        </source>
        <vertices id="vert_0">
          <input semantic="POSITION" source="#pos_0"/>
        </vertices>
        <triangles count="28" material="mat_0">
          <input semantic="VERTEX" source="#vert_0" offset="0"/>
          <input semantic="NORMAL" source="#norm_0" offset="1"/>
          <p>0 0 1 0 2 0 2 0 1 0 3 0 4 1 0 1 5 1 5 1 0 1 2 1 6 2 4 2 7 2 7 2 4 2 5 2 1 3 6 3 3 3 3 3 6 3 7 3 7 4 5 4 3 4 3 4 5 4 2 4 8 5 0 5 9 5 9 5 0 5 4 5 9 5 4 5 10 5 10 5 4 5 6 5 10 5 6 5 11 5 11 5 6 5 1 5 11 5 1 5 8 5 8 5 1 5 0 5 10 1 11 1 12 1 12 1 11 1 13 1 11 2 8 2 13 2 13 2 8 2 14 2 8 3 9 3 14 3 14 3 9 3 15 3 9 0 10 0 15 0 15 0 10 0 12 0 13 5 14 5 12 5 12 5 14 5 15 5</p>
        </triangles>
      </mesh>
    </geometry>
  </library_geometries>
  <library_visual_scenes>
    <visual_scene id="DefaultScene">
      <node id="node_7c738e0c_7a42_4465_8742_6b3756cc155d" type="NODE">
        <matrix>1 0 0 0 0 1 0 0 0 0 1 0 0 0 0 1</matrix>
        <node id="node_232f0093_2604_4c65_87f8_b0c2401c51c9" type="NODE">
          <matrix>1 0 0 0 0 1 0 0 0 0 1 0 0 0 0 1</matrix>
          <node id="node_232f0093_2604_4c65_87f8_b0c2401c51c9_mesh0" type="NODE">
            <matrix>1 0 0 0 0 1 0 0 0 0 1 0 0 0 0 1</matrix>
            <instance_geometry url="#geometry_86422014_dc69_4e0b_b301_bc58a95eb2c6">
              <bind_material>
                <technique_common>
                  <instance_material symbol="mat_0" target="#mat_0"/>
                </technique_common>
              </bind_material>
            </instance_geometry>
          </node>
        </node>
      </node>
    </visual_scene>
  </library_visual_scenes>
  <scene>
    <instance_visual_scene url="#DefaultScene"/>
  </scene>
</COLLADA>
