<?xml version="1.0" encoding="UTF-8"?>
<COLLADA xmlns="http://www.collada.org/2005/11/COLLADASchema" version="1.4.1">
<!--
# File generated by ImageToStl.com - Free Image and 3D model conversion tools
-->
  <asset>
    <contributor>
      <author>ImageToStl.com</author>
      <authoring_tool>ImageToStl.com</authoring_tool>
    </contributor>
    <created>2026-02-25T04:54:12</created>
    <modified>2026-02-25T04:54:12</modified>
    <up_axis>Z_UP</up_axis>
  </asset>
  <library_effects>
    <effect id="effect_0">
        <profile_COMMON>
          <technique sid="common">
            <phong>
              <diffuse>
                <color>0.85 0.85 0.85 1</color>
              </diffuse>
              <specular>
                <color>0.05 0.05 0.05 1</color>
              </specular>
              <shininess>
                <float>64</float>
              </shininess>
            </phong>
          </technique>
        </profile_COMMON>
    </effect>
  </library_effects>
  <library_materials>
    <material id="mat_0">
      <instance_effect url="#effect_0"/>
    </material>
  </library_materials>
  <library_geometries>
    <geometry id="geometry_8c6506fc_2476_4808_a640_6741aec60632">
      <mesh>
        <source id="pos_0">
          <float_array id="pos_0-array" count="240">-3.72000003 -1.82539988 0.42999998 -3.67770004 -1.32539988 0.42999998 -3.67770004 0.67460001 0.42999998 -3.65229988 -1.32539988 0.42999998 -3.6099999 -1.82539988 0.42999998 -3.65229988 0.67460001 0.42999998 -3.6099999 1.20000005 0.42999998 -3.72000003 1.20000005 0.42999998 -3.75 -1.82539988 0.01 -3.75 1.20000005 0.01 -3.57999992 -1.82539988 0.01 -3.57999992 1.20000005 0.01 -3.65229988 0.67460001 1.41699994 -3.65229988 -1.32539988 1.41699994 -3.67770004 0.67460001 1.41699994 -3.67770004 -1.32539988 1.41699994 -2.34500003 2 0.42999998 -2.64499998 2 0.42999998 -2.54999995 1.98699999 0.42999998 -2.64499998 1.98699999 0.42999998 -2.34500003 1.98699999 0.42999998 -2.44000006 1.98699999 0.42999998 -2.48230004 1.98699999 0.42999998 -2.44000006 -0.03839992 0.42999998 -2.48230004 -0.013 0.42999998 -2.54999995 -0.03839992 0.42999998 -2.50769997 -0.013 0.42999998 -2.50769997 1.98699999 0.42999998 -2.57999992 -0.03839992 0.01 -2.57999992 1.98699999 0.01 -2.64499998 1.98699999 0.01 -2.64499998 2 0.01 -2.34500003 2 0.01 -2.34500003 1.98699999 0.01 -2.41000009 1.98699999 0.01 -2.41000009 -0.03839992 0.01 -2.50769997 1.98699999 0.68000001 -2.48230004 1.98699999 0.68000001 -2.50769997 -0.013 0.68000001 -2.48230004 -0.013 0.68000001 3.6099999 -1.82539988 0.42999998 3.65229988 -1.32539988 0.42999998 3.65229988 0.67460001 0.42999998 3.67770004 -1.32539988 0.42999998 3.72000003 -1.82539988 0.42999998 3.67770004 0.67460001 0.42999998 3.72000003 1.20000005 0.42999998 3.6099999 1.20000005 0.42999998 3.57999992 -1.82539988 0.01 3.57999992 1.20000005 0.01 3.75 -1.82539988 0.01 3.75 1.20000005 0.01 3.67770004 0.67460001 1.41699994 3.67770004 -1.32539988 1.41699994 3.65229988 0.67460001 1.41699994 3.65229988 -1.32539988 1.41699994 2.64499998 2 0.42999998 2.34500003 2 0.42999998 2.44000006 1.98699999 0.42999998 2.34500003 1.98699999 0.42999998 2.64499998 1.98699999 0.42999998 2.54999995 1.98699999 0.42999998 2.50769997 1.98699999 0.42999998 2.54999995 -0.03839992 0.42999998 2.50769997 -0.013 0.42999998 2.44000006 -0.03839992 0.42999998 2.48230004 -0.013 0.42999998 2.48230004 1.98699999 0.42999998 2.41000009 -0.03839992 0.01 2.41000009 1.98699999 0.01 2.34500003 1.98699999 0.01 2.34500003 2 0.01 2.64499998 2 0.01 2.64499998 1.98699999 0.01 2.57999992 1.98699999 0.01 2.57999992 -0.03839992 0.01 2.48230004 1.98699999 0.68000001 2.50769997 1.98699999 0.68000001 2.48230004 -0.013 0.68000001 2.50769997 -0.013 0.68000001</float_array>
          <technique_common>
            <accessor source="#pos_0-array" count="240" stride="3">
              <param name="X" type="float"/>
              <param name="Y" type="float"/>
              <param name="Z" type="float"/>
            </accessor>
          </technique_common>
        </source>
        <source id="norm_0">
          <float_array id="norm_0-array" count="27">0 0 1 -0.99746 0 0.07125 -0 0 -1 0.99746 0 0.07125 0 -1 0 -0 1 -0 1 0 0 -1 0 0 -0.99746 -0 0.07125</float_array>
          <technique_common>
            <accessor source="#norm_0-array" count="27" stride="3">
              <param name="X" type="float"/>
              <param name="Y" type="float"/>
              <param name="Z" type="float"/>
            </accessor>
          </technique_common>
        </source>
        <vertices id="vert_0">
          <input semantic="POSITION" source="#pos_0"/>
        </vertices>
        <triangles count="144" material="mat_0">
          <input semantic="VERTEX" source="#vert_0" offset="0"/>
          <input semantic="NORMAL" source="#norm_0" offset="1"/>
          <p>0 0 1 0 2 0 1 0 0 0 3 0 3 0 0 0 4 0 3 0 4 0 5 0 5 0 4 0 6 0 5 0 6 0 2 0 2 0 6 0 7 0 2 0 7 0 0 0 8 1 0 1 9 1 9 1 0 1 7 1 10 2 8 2 11 2 11 2 8 2 9 2 4 3 10 3 6 3 6 3 10 3 11 3 10 4 4 4 8 4 8 4 4 4 0 4 6 5 11 5 7 5 7 5 11 5 9 5 5 6 12 6 3 6 3 6 12 6 13 6 14 7 2 7 15 7 15 7 2 7 1 7 12 0 14 0 13 0 13 0 14 0 15 0 2 5 14 5 5 5 5 5 14 5 12 5 15 4 1 4 13 4 13 4 1 4 3 4 16 0 17 0 18 0 18 0 17 0 19 0 20 0 16 0 21 0 21 0 16 0 22 0 21 0 22 0 23 0 23 0 22 0 24 0 23 0 24 0 25 0 25 0 24 0 26 0 25 0 26 0 18 0 18 0 26 0 27 0 18 0 27 0 16 0 16 0 27 0 22 0 28 8 25 8 29 8 29 1 25 1 18 1 29 2 30 2 31 2 32 2 33 2 34 2 35 2 28 2 34 2 34 2 28 2 29 2 34 2 29 2 32 2 32 2 29 2 31 2 23 3 35 3 21 3 21 3 35 3 34 3 35 4 23 4 28 4 28 4 23 4 25 4 36 5 37 5 27 5 27 5 37 5 22 5 38 4 26 4 39 4 39 4 26 4 24 4 36 0 38 0 37 0 37 0 38 0 39 0 27 7 26 7 36 7 36 7 26 7 38 7 37 6 39 6 22 6 22 6 39 6 24 6 19 4 30 4 18 4 18 4 30 4 29 4 33 4 20 4 34 4 34 4 20 4 21 4 17 7 31 7 19 7 19 7 31 7 30 7 32 6 16 6 33 6 33 6 16 6 20 6 17 5 16 5 31 5 31 5 16 5 32 5 40 0 41 0 42 0 41 0 40 0 43 0 43 0 40 0 44 0 43 0 44 0 45 0 45 0 44 0 46 0 45 0 46 0 42 0 42 0 46 0 47 0 42 0 47 0 40 0 48 1 40 1 49 1 49 1 40 1 47 1 50 2 48 2 51 2 51 2 48 2 49 2 44 3 50 3 46 3 46 3 50 3 51 3 50 4 44 4 48 4 48 4 44 4 40 4 46 5 51 5 47 5 47 5 51 5 49 5 45 6 52 6 43 6 43 6 52 6 53 6 54 7 42 7 55 7 55 7 42 7 41 7 52 0 54 0 53 0 53 0 54 0 55 0 42 5 54 5 45 5 45 5 54 5 52 5 55 4 41 4 53 4 53 4 41 4 43 4 56 0 57 0 58 0 58 0 57 0 59 0 60 0 56 0 61 0 61 0 56 0 62 0 61 0 62 0 63 0 63 0 62 0 64 0 63 0 64 0 65 0 65 0 64 0 66 0 65 0 66 0 58 0 58 0 66 0 67 0 58 0 67 0 56 0 56 0 67 0 62 0 68 8 65 8 69 8 69 1 65 1 58 1 69 2 70 2 71 2 72 2 73 2 74 2 75 2 68 2 74 2 74 2 68 2 69 2 74 2 69 2 72 2 72 2 69 2 71 2 63 3 75 3 61 3 61 3 75 3 74 3 75 4 63 4 68 4 68 4 63 4 65 4 76 5 77 5 67 5 67 5 77 5 62 5 78 4 66 4 79 4 79 4 66 4 64 4 76 0 78 0 77 0 77 0 78 0 79 0 67 7 66 7 76 7 76 7 66 7 78 7 77 6 79 6 62 6 62 6 79 6 64 6 59 4 70 4 58 4 58 4 70 4 69 4 73 4 60 4 74 4 74 4 60 4 61 4 57 7 71 7 59 7 59 7 71 7 70 7 72 6 56 6 73 6 73 6 56 6 60 6 57 5 56 5 71 5 71 5 56 5 72 5</p>
        </triangles>
      </mesh>
    </geometry>
  </library_geometries>
  <library_visual_scenes>
    <visual_scene id="DefaultScene">
      <node id="node_78861fae_300f_4444_bf94_f162f1535e40" type="NODE">
        <matrix>1 0 0 0 0 1 0 0 0 0 1 0 0 0 0 1</matrix>
        <node id="node_007bd912_0743_47d8_a02e_b63171626e04" type="NODE">
          <matrix>1 0 0 0 0 1 0 0 0 0 1 0 0 0 0 1</matrix>
          <node id="node_007bd912_0743_47d8_a02e_b63171626e04_mesh0" type="NODE">
            <matrix>1 0 0 0 0 1 0 0 0 0 1 0 0 0 0 1</matrix>
            <instance_geometry url="#geometry_8c6506fc_2476_4808_a640_6741aec60632">
              <bind_material>
                <technique_common>
                  <instance_material symbol="mat_0" target="#mat_0"/>
                </technique_common>
              </bind_material>
            </instance_geometry>
          </node>
        </node>
      </node>
    </visual_scene>
  </library_visual_scenes>
  <scene>
    <instance_visual_scene url="#DefaultScene"/>
  </scene>
</COLLADA>
