<?xml version="1.0" encoding="UTF-8"?>
<COLLADA xmlns="http://www.collada.org/2005/11/COLLADASchema" version="1.4.1">
<!--
# File generated by ImageToStl.com - Free Image and 3D model conversion tools
-->
  <asset>
    <contributor>
      <author>ImageToStl.com</author>
      <authoring_tool>ImageToStl.com</authoring_tool>
    </contributor>
    <created>2026-02-25T04:54:12</created>
    <modified>2026-02-25T04:54:12</modified>
    <up_axis>Z_UP</up_axis>
  </asset>
  <library_effects>
    <effect id="effect_0">
        <profile_COMMON>
          <technique sid="common">
            <phong>
              <diffuse>
                <color>0.85 0.85 0.85 1</color>
              </diffuse>
              <specular>
                <color>0.05 0.05 0.05 1</color>
              </specular>
              <shininess>
                <float>64</float>
              </shininess>
            </phong>
          </technique>
        </profile_COMMON>
    </effect>
  </library_effects>
  <library_materials>
    <material id="mat_0">
      <instance_effect url="#effect_0"/>
    </material>
  </library_materials>
  <library_geometries>
    <geometry id="geometry_d5b7527e_2898_429a_b128_25789d8ce13d">
      <mesh>
        <source id="pos_0">
          <float_array id="pos_0-array" count="78">2 3 0.22 1 3 0.22 1.21626937 3 0.01 1 3 0.01 -1 3 0.01 -1 3 0.22 -1.21626937 3 0.01 -2 3 0.22 3 4 0.22 3.78373075 4 0.01 -3 4 0.22 -3.78373075 4 0.01 -3 2 0.22 -3.78373075 2 0.01 -2 2 0.22 -1.21626937 2 0.01 1.21626937 2 0.01 3.78373075 2 0.01 2 2 0.22 3 2 0.22 1 2.98099995 0.01 -1 2.98099995 0.01 -1 3 0.41999999 1 3 0.41999999 1 2.98099995 0.41999999 -1 2.98099995 0.41999999</float_array>
          <technique_common>
            <accessor source="#pos_0-array" count="78" stride="3">
              <param name="X" type="float"/>
              <param name="Y" type="float"/>
              <param name="Z" type="float"/>
            </accessor>
          </technique_common>
        </source>
        <source id="norm_0">
          <float_array id="norm_0-array" count="33">0 -1 0 -0 1 -0 0 0 1 -0 0 -1 -0.25882 0 0.96593 0.25882 0 0.96593 -0.25882 -0 0.96593 -0.25882 0 0.96593 0.25882 0 0.96593 1 0 0 -1 0 0</float_array>
          <technique_common>
            <accessor source="#norm_0-array" count="33" stride="3">
              <param name="X" type="float"/>
              <param name="Y" type="float"/>
              <param name="Z" type="float"/>
            </accessor>
          </technique_common>
        </source>
        <vertices id="vert_0">
          <input semantic="POSITION" source="#pos_0"/>
        </vertices>
        <triangles count="48" material="mat_0">
          <input semantic="VERTEX" source="#vert_0" offset="0"/>
          <input semantic="NORMAL" source="#norm_0" offset="1"/>
          <p>0 0 1 0 2 0 2 0 1 0 3 0 4 0 5 0 6 0 6 0 5 0 7 0 8 1 9 1 10 1 10 1 9 1 11 1 12 0 13 0 14 0 14 0 13 0 15 0 16 0 17 0 18 0 18 0 17 0 19 0 10 2 12 2 14 2 18 2 19 2 0 2 0 2 19 2 8 2 14 2 7 2 10 2 10 2 7 2 5 2 10 2 5 2 8 2 8 2 5 2 1 2 8 2 1 2 0 2 17 3 16 3 9 3 9 3 16 3 2 3 20 3 21 3 3 3 3 3 21 3 4 3 15 3 13 3 6 3 6 3 13 3 11 3 6 3 11 3 4 3 4 3 11 3 9 3 4 3 9 3 3 3 3 3 9 3 2 3 13 4 12 4 11 4 11 4 12 4 10 4 14 5 15 5 7 5 7 5 15 5 6 5 16 6 18 6 2 6 2 7 18 7 0 7 19 8 17 8 8 8 8 8 17 8 9 8 22 1 23 1 5 1 5 1 23 1 1 1 23 9 24 9 1 9 1 9 24 9 20 9 1 9 20 9 3 9 25 2 24 2 22 2 22 2 24 2 23 2 4 10 21 10 5 10 5 10 21 10 25 10 5 10 25 10 22 10 25 0 21 0 24 0 24 0 21 0 20 0</p>
        </triangles>
      </mesh>
    </geometry>
  </library_geometries>
  <library_visual_scenes>
    <visual_scene id="DefaultScene">
      <node id="node_0ff214c4_10a7_40e2_ba7c_ded02115f108" type="NODE">
        <matrix>1 0 0 0 0 1 0 0 0 0 1 0 0 0 0 1</matrix>
        <node id="node_ef1956eb_3005_428f_8211_80b4a537a6e7" type="NODE">
          <matrix>1 0 0 0 0 1 0 0 0 0 1 0 0 0 0 1</matrix>
          <node id="node_ef1956eb_3005_428f_8211_80b4a537a6e7_mesh0" type="NODE">
            <matrix>1 0 0 0 0 1 0 0 0 0 1 0 0 0 0 1</matrix>
            <instance_geometry url="#geometry_d5b7527e_2898_429a_b128_25789d8ce13d">
              <bind_material>
                <technique_common>
                  <instance_material symbol="mat_0" target="#mat_0"/>
                </technique_common>
              </bind_material>
            </instance_geometry>
          </node>
        </node>
      </node>
    </visual_scene>
  </library_visual_scenes>
  <scene>
    <instance_visual_scene url="#DefaultScene"/>
  </scene>
</COLLADA>
